<?xml version="1.0" standalone="no"?>
<!DOCTYPE svg PUBLIC "-//W3C//DTD SVG 20010904//EN"
 "http://www.w3.org/TR/2001/REC-SVG-20010904/DTD/svg10.dtd">
<svg version="1.0" xmlns="http://www.w3.org/2000/svg"
 width="400.000000pt" height="400.000000pt" viewBox="0 0 400.000000 400.000000"
 preserveAspectRatio="xMidYMid meet">
<metadata>
Created by potrace 1.14, written by Peter Selinger 2001-2017
</metadata>
<g transform="translate(0.000000,400.000000) scale(0.100000,-0.100000)"
fill="#000000" stroke="none">
<path d="M1956 3989 c6 -8 13 -21 16 -28 4 -13 5 -13 10 0 4 9 -2 21 -15 29
-19 11 -20 11 -11 -1z"/>
<path d="M2240 3990 c-13 -9 -13 -11 0 -20 12 -7 13 -11 2 -22 -11 -11 -13
-10 -10 2 2 8 -3 14 -10 12 -8 -1 -11 2 -6 9 4 7 3 9 -4 5 -5 -3 -13 0 -16 6
-3 7 -3 0 -1 -17 3 -16 2 -24 -1 -17 -3 6 -11 9 -16 6 -7 -4 -8 -2 -4 4 4 7 2
12 -5 12 -7 0 -9 -9 -6 -22 6 -21 5 -22 -7 -5 -17 23 -56 31 -56 12 0 -8 -5
-17 -12 -21 -7 -4 -8 -3 -4 4 4 7 3 12 -3 12 -5 0 -12 -4 -16 -10 -7 -11 -55
8 -55 22 0 5 -5 6 -10 3 -6 -4 -8 -10 -6 -14 3 -4 -6 -7 -19 -7 -13 0 -23 2
-23 6 2 27 -2 32 -19 19 -15 -12 -16 -12 -8 1 7 13 6 13 -7 2 -11 -9 -23 -10
-42 -2 -18 6 -26 6 -26 -1 0 -6 -4 -7 -10 -4 -5 3 -10 0 -10 -8 0 -8 -8 -21
-17 -28 -9 -8 -14 -9 -10 -3 4 7 0 15 -9 18 -8 3 -12 2 -9 -4 3 -6 2 -10 -4
-10 -5 0 -13 5 -16 10 -4 6 -11 8 -16 5 -5 -4 -12 1 -15 9 -3 9 -11 16 -16 16
-6 0 -5 -6 2 -15 9 -11 9 -15 1 -15 -7 0 -9 -5 -5 -11 3 -6 -8 -3 -26 6 -18 9
-29 12 -26 6 4 -6 3 -11 -3 -11 -5 0 -13 5 -16 10 -5 8 -11 8 -19 1 -7 -6 -16
-8 -20 -4 -4 4 -9 -2 -12 -14 -4 -15 -11 -20 -22 -15 -15 5 -15 4 -3 -11 12
-15 12 -17 -3 -11 -14 5 -20 -3 -18 -26 0 -3 -9 -7 -21 -7 -17 -2 -19 0 -7 7
8 5 10 10 4 10 -6 0 -17 -7 -24 -15 -9 -11 -16 -12 -26 -4 -10 8 -12 6 -9 -11
3 -18 1 -20 -18 -14 -21 6 -21 6 -3 -9 19 -14 19 -14 -5 -13 -27 2 -49 -15
-49 -38 0 -8 -5 -18 -10 -21 -6 -4 -7 -11 -4 -17 4 -6 -3 -5 -16 2 -16 9 -20
9 -15 1 10 -18 -15 -44 -30 -31 -9 8 -12 4 -10 -15 2 -14 -1 -23 -6 -19 -5 3
-6 10 -3 16 4 7 2 8 -4 4 -6 -4 -8 -14 -5 -24 6 -15 5 -16 -12 -2 -15 12 -17
12 -10 1 6 -11 4 -13 -8 -8 -14 5 -22 -5 -32 -43 -6 -21 -19 -40 -27 -40 -5 0
-6 5 -2 12 4 6 3 8 -4 4 -6 -3 -9 -16 -7 -27 4 -17 2 -19 -11 -8 -12 10 -13 9
-8 -5 5 -14 -4 -20 -27 -18 -3 1 -6 -5 -6 -13 0 -8 4 -12 9 -9 4 3 8 1 8 -4 0
-5 -10 -14 -22 -20 -13 -6 -17 -11 -10 -11 6 -1 12 -8 12 -17 0 -14 -2 -15
-17 -3 -10 8 -14 9 -10 2 4 -6 3 -14 -2 -18 -6 -3 -7 -15 -1 -29 4 -12 4 -29
0 -36 -5 -8 -6 -18 -4 -22 3 -4 1 -8 -5 -8 -5 0 -8 -8 -7 -17 2 -10 -1 -20 -5
-23 -5 -3 -9 -29 -10 -58 -2 -41 2 -56 17 -67 16 -13 16 -14 2 -9 -17 6 -17 4
-3 -22 8 -16 11 -30 6 -32 -5 -2 -5 -18 -1 -38 5 -21 4 -37 -3 -41 -6 -4 -4
-11 7 -19 11 -8 13 -14 7 -19 -6 -3 -11 -11 -11 -16 0 -6 4 -8 8 -5 4 2 8 -4
8 -14 0 -10 -4 -16 -8 -14 -4 3 -8 0 -8 -5 0 -6 6 -11 13 -11 7 0 8 -3 2 -8
-11 -8 -15 -52 -5 -52 4 0 6 -13 5 -30 -1 -16 2 -27 6 -25 4 3 9 -2 13 -10 3
-8 1 -17 -5 -21 -6 -3 -6 -11 -1 -17 5 -7 9 -25 10 -42 3 -38 9 -72 17 -84 3
-5 0 -13 -6 -17 -8 -5 -8 -8 0 -13 6 -4 12 -19 13 -34 1 -15 5 -27 8 -27 16 0
6 -40 -11 -45 -10 -4 -19 -11 -19 -16 0 -6 -4 -8 -9 -4 -5 3 -12 -3 -16 -14
-13 -42 -6 -245 11 -323 3 -13 8 -36 11 -53 2 -16 9 -35 14 -41 5 -6 6 -14 2
-17 -3 -4 -1 -13 5 -20 7 -8 9 -16 7 -19 -9 -8 17 -61 39 -80 10 -10 27 -18
38 -18 10 0 18 -5 18 -11 0 -5 5 -7 10 -4 5 3 10 0 11 -7 1 -17 3 -24 33 -143
29 -109 38 -137 76 -230 6 -16 11 -32 10 -34 -1 -2 2 -7 7 -10 14 -9 53 -111
53 -137 0 -24 -93 -125 -180 -194 -24 -19 -48 -40 -54 -45 -17 -16 -86 -57
-86 -51 0 3 -19 -2 -42 -10 -24 -9 -51 -17 -62 -19 -10 -3 -23 -8 -30 -13 -6
-5 -28 -15 -49 -22 -20 -6 -43 -17 -50 -23 -6 -7 -28 -20 -47 -29 -19 -10 -60
-31 -90 -47 -30 -16 -57 -28 -61 -25 -4 2 -10 0 -14 -5 -3 -6 -11 -8 -18 -5
-7 2 -42 -2 -78 -11 -35 -9 -73 -18 -84 -19 -36 -7 -130 -38 -141 -47 -6 -5
-14 -6 -17 -2 -4 3 -7 1 -7 -5 0 -6 -7 -9 -15 -6 -8 4 -15 2 -15 -4 0 -6 -17
-16 -37 -23 -21 -7 -48 -19 -61 -27 -12 -8 -22 -12 -22 -9 0 3 -12 0 -27 -8
-15 -8 -30 -12 -35 -9 -4 3 -8 0 -8 -5 0 -6 -3 -10 -7 -9 -9 1 -55 -16 -90
-34 l-23 -11 0 -304 0 -303 2000 0 2000 0 0 328 c0 180 -4 333 -9 341 -5 8
-19 16 -30 18 -35 5 -46 8 -51 13 -6 6 -67 29 -90 35 -8 2 -26 8 -40 13 -14 5
-29 11 -35 12 -5 2 -19 6 -30 11 -20 8 -56 21 -65 24 -3 1 -16 6 -30 12 -86
36 -101 42 -108 44 -9 2 -28 10 -147 58 -54 23 -103 41 -107 41 -5 0 -26 11
-48 25 -22 14 -40 22 -40 19 0 -4 -8 3 -19 14 -10 12 -21 22 -25 22 -3 0 -15
8 -25 18 -21 19 -27 23 -86 66 -22 16 -55 45 -73 63 -18 18 -37 33 -41 33 -5
0 -19 25 -31 55 -12 30 -26 55 -31 55 -5 0 -9 7 -9 15 0 8 -5 15 -11 15 -5 0
-7 5 -4 10 3 6 1 10 -6 10 -7 0 -10 3 -6 6 3 3 -5 18 -19 32 -32 35 -32 41 -9
187 2 11 6 42 10 69 3 27 11 58 16 68 5 10 7 18 5 18 -3 0 1 18 9 40 15 41 15
43 15 60 0 5 18 13 40 16 22 4 43 11 46 15 3 5 9 7 14 4 5 -3 11 4 15 15 3 11
11 20 16 20 6 0 7 5 4 10 -3 6 -2 10 3 10 5 0 12 8 16 18 7 21 39 76 56 97 7
8 9 15 5 15 -4 0 -3 6 2 12 12 15 38 90 35 101 -1 4 1 7 5 7 10 0 14 36 16
141 2 69 -1 89 -15 103 -20 19 -75 16 -88 -4 -5 -9 -9 -9 -14 -1 -4 6 -2 11 4
11 6 0 8 5 5 10 -3 6 -2 10 4 10 5 0 8 8 6 18 -1 9 0 22 4 27 7 12 12 34 14
58 1 9 6 17 12 17 5 0 3 5 -5 10 -11 7 -11 10 -2 10 7 0 10 5 7 10 -3 6 -2 10
3 10 4 0 9 21 11 47 1 26 5 52 9 57 3 6 5 19 3 30 -2 13 1 16 11 10 10 -6 10
-4 -1 9 -7 9 -9 17 -3 17 5 0 13 7 16 16 3 8 2 12 -4 9 -6 -3 -10 -2 -10 4 0
5 6 12 13 15 9 4 9 8 1 11 -7 3 -10 15 -7 25 3 12 10 17 17 13 6 -4 5 1 -3 10
-9 11 -10 17 -2 17 6 0 11 5 11 11 0 6 -6 7 -12 2 -7 -4 -5 5 4 19 11 17 14
29 8 33 -6 4 -7 12 -3 18 9 15 11 47 3 47 -8 0 -6 32 3 47 4 6 3 14 -3 18 -17
10 -11 25 13 35 18 7 19 9 3 9 -11 1 -16 6 -13 15 3 8 1 16 -5 18 -6 2 -12 12
-14 21 -1 10 2 14 9 10 7 -4 8 0 4 11 -4 10 -7 20 -7 22 0 3 -6 2 -12 -2 -8
-5 -7 0 2 11 14 17 13 18 -4 12 -15 -6 -16 -5 -8 6 7 8 7 18 2 27 -6 9 -4 20
3 29 7 8 7 12 2 9 -6 -4 -17 3 -25 15 -12 20 -12 21 3 8 15 -12 17 -11 17 3 0
9 -5 16 -11 16 -6 0 -8 7 -5 16 5 14 4 15 -9 4 -13 -11 -15 -9 -16 11 -1 13
-1 29 0 36 1 7 -7 10 -20 8 -18 -4 -19 -2 -7 12 9 12 9 15 1 9 -7 -4 -13 -3
-13 2 0 5 -9 12 -21 15 -18 5 -19 8 -9 27 7 13 8 20 3 17 -9 -6 -27 12 -31 32
-1 7 -9 20 -17 28 -17 17 -20 27 -5 18 7 -4 7 3 0 20 -6 15 -7 31 -4 37 4 6 3
9 -2 6 -5 -3 -14 0 -21 7 -10 11 -10 15 0 18 9 4 9 6 0 6 -7 1 -13 6 -13 12 0
5 5 7 12 3 7 -4 8 -3 4 5 -6 8 -12 9 -20 2 -7 -6 -16 -8 -19 -4 -4 3 -7 2 -7
-3 0 -17 -48 -15 -54 3 -5 12 -4 13 7 5 10 -9 14 -8 14 3 0 8 -7 15 -16 15
-14 0 -14 2 -1 10 11 7 11 10 2 10 -8 0 -10 5 -6 13 5 8 2 8 -9 -2 -21 -17
-22 -8 -2 13 14 14 14 18 0 40 -14 21 -62 35 -49 14 8 -13 -11 -9 -25 5 -12
10 -13 8 -7 -8 5 -16 2 -15 -13 5 l-20 25 5 -25 c5 -20 4 -22 -6 -10 -9 11
-13 12 -17 3 -2 -7 -9 -13 -14 -13 -6 0 -7 5 -3 12 5 8 2 9 -11 4 -14 -5 -15
-4 -7 7 8 10 6 13 -8 13 -10 0 -17 -3 -14 -7 5 -8 -27 -22 -34 -14 -3 3 0 5 7
5 7 0 10 4 6 10 -3 5 -12 7 -20 3 -8 -3 -15 -1 -15 5 0 6 -8 9 -17 7 -25 -4
-38 6 -22 17 9 5 4 6 -13 2 -19 -4 -28 -2 -28 6 0 10 -3 10 -14 1 -11 -9 -15
-9 -19 1 -4 10 -8 10 -17 -2 -10 -13 -11 -12 -6 4 5 13 2 17 -9 12 -10 -3 -15
0 -15 11 0 9 -3 13 -6 10 -4 -3 -16 5 -26 19 -11 14 -23 23 -26 19 -3 -3 3
-12 14 -21 17 -14 16 -14 -11 0 -16 8 -38 17 -48 20 -10 3 -15 10 -12 16 8 12
4 12 -15 0z m-349 -48 c-7 -2 -18 1 -23 6 -8 8 -4 9 13 5 13 -4 18 -8 10 -11z
m243 10 c3 -5 -1 -9 -9 -9 -8 0 -12 4 -9 9 3 4 7 8 9 8 2 0 6 -4 9 -8z m-504
-32 c-6 -11 -13 -20 -16 -20 -2 0 0 9 6 20 6 11 13 20 16 20 2 0 0 -9 -6 -20z
m135 11 c3 -5 1 -12 -5 -16 -5 -3 -10 1 -10 9 0 18 6 21 15 7z m995 -91 c0 -5
-2 -10 -4 -10 -3 0 -8 5 -11 10 -3 6 -1 10 4 10 6 0 11 -4 11 -10z m-25 -20
c-4 -7 3 -9 22 -4 27 6 27 6 8 -9 -11 -9 -24 -12 -29 -7 -5 5 -16 6 -25 3 -11
-4 -10 -1 4 10 24 19 29 21 20 7z m-1305 -40 c0 -5 -5 -10 -11 -10 -5 0 -7 5
-4 10 3 6 8 10 11 10 2 0 4 -4 4 -10z m1312 -4 c7 4 8 2 4 -5 -9 -13 -26 -5
-25 12 0 9 2 8 6 -1 2 -6 10 -9 15 -6z m143 -126 c-3 -5 -1 -10 6 -10 7 0 10
-3 6 -6 -9 -9 -28 6 -22 17 4 5 8 9 11 9 3 0 2 -4 -1 -10z"/>
<path d="M1890 3979 c0 -5 5 -7 10 -4 6 3 10 8 10 11 0 2 -4 4 -10 4 -5 0 -10
-5 -10 -11z"/>
<path d="M2790 3840 c0 -5 5 -10 11 -10 5 0 7 5 4 10 -3 6 -8 10 -11 10 -2 0
-4 -4 -4 -10z"/>
<path d="M1320 3709 c0 -5 5 -7 10 -4 6 3 10 8 10 11 0 2 -4 4 -10 4 -5 0 -10
-5 -10 -11z"/>
<path d="M1036 3194 c-3 -8 -2 -13 3 -9 5 3 12 -1 14 -7 3 -7 6 -3 6 10 1 25
-14 30 -23 6z"/>
<path d="M3100 3119 c0 -5 5 -7 10 -4 6 3 10 8 10 11 0 2 -4 4 -10 4 -5 0 -10
-5 -10 -11z"/>
</g>
</svg>
